# xmcd
#
# Track frame offsets: 
#        150
#        16062
#        32037
#        53037
#        69175
#        84837
#        101262
#        120912
#        137412
#        152337
#        168537
#
# Disc length: 2542 seconds
#
# Revision: 4
# Processed by: cddbd v1.5.2PL0 Copyright (c) Steve Scherf et al.
# Submitted via: ExactAudioCopy v0.99pb3
#
DISCID=6d09ec0b
DTITLE=Johnny Winter - Johnny Winter And [DCC DZS-194]
DYEAR=1970
DGENRE=Rock
TTITLE0=Guess I'll Go Away
TTITLE1=Ain't That A Kindness
TTITLE2=No Time To Live
TTITLE3=Rock And Roll,Hoochie Koo
TTITLE4=Am I Here?
TTITLE5=Look Up
TTITLE6=Prodigal Son
TTITLE7=On The Limb
TTITLE8=Let The Music Play
TTITLE9=Nothing Left
TTITLE10=Funky Music
EXTD=
EXTT0=
EXTT1=
EXTT2=
EXTT3=
EXTT4=
EXTT5=
EXTT6=
EXTT7=
EXTT8=
EXTT9=
EXTT10=
PLAYORDER=
